HIERARCHY
ROOT root
{
	OFFSET 0.000000 0.000000 0.000000
	CHANNELS 6 Xposition Yposition Zposition Zrotation Yrotation Xrotation
	JOINT lhip
	{
		OFFSET 0.058581 -0.082280 -0.017664
		CHANNELS 3 Zrotation Yrotation Xrotation
		JOINT lknee
		{
			OFFSET 0.043451 -0.386469 0.008037
			CHANNELS 3 Zrotation Yrotation Xrotation
			JOINT lankle
			{
				OFFSET -0.014790 -0.426874 -0.037428
				CHANNELS 3 Zrotation Yrotation Xrotation
				JOINT ltoe
				{
					OFFSET 0.041054 -0.060286 0.122042
					CHANNELS 3 Zrotation Yrotation Xrotation
					End Site
					{
						OFFSET 0.000000 0.000000 0.000000
					}
				}
			}
		}
	}
	JOINT rhip
	{
		OFFSET -0.060310 -0.090513 -0.013543
		CHANNELS 3 Zrotation Yrotation Xrotation
		JOINT rknee
		{
			OFFSET -0.043257 -0.383688 -0.004843
			CHANNELS 3 Zrotation Yrotation Xrotation
			JOINT rankle
			{
				OFFSET 0.019056 -0.420046 -0.034562
				CHANNELS 3 Zrotation Yrotation Xrotation
				JOINT rtoe
				{
					OFFSET -0.034840 -0.062106 0.130323
					CHANNELS 3 Zrotation Yrotation Xrotation
					End Site
					{
						OFFSET 0.000000 0.000000 0.000000
					}
				}
			}
		}
	}
	JOINT lowerback
	{
		OFFSET 0.004439 0.124404 -0.038385
		CHANNELS 3 Zrotation Yrotation Xrotation
		JOINT upperback
		{
			OFFSET 0.004488 0.137956 0.026820
			CHANNELS 3 Zrotation Yrotation Xrotation
			JOINT chest
			{
				OFFSET -0.002265 0.056032 0.002855
				CHANNELS 3 Zrotation Yrotation Xrotation
				JOINT lowerneck
				{
					OFFSET -0.013390 0.211636 -0.033468
					CHANNELS 3 Zrotation Yrotation Xrotation
					JOINT upperneck
					{
						OFFSET 0.010113 0.088937 0.050410
						CHANNELS 3 Zrotation Yrotation Xrotation
						End Site
						{
							OFFSET 0.000000 0.000000 0.000000
						}
					}
				}
				JOINT lclavicle
				{
					OFFSET 0.071702 0.114000 -0.018898
					CHANNELS 3 Zrotation Yrotation Xrotation
					JOINT lshoulder
					{
						OFFSET 0.122921 0.045205 -0.019046
						CHANNELS 3 Zrotation Yrotation Xrotation
						JOINT lelbow
						{
							OFFSET 0.255332 -0.015649 -0.022946
							CHANNELS 3 Zrotation Yrotation Xrotation
							JOINT lwrist
							{
								OFFSET 0.265709 0.012698 -0.007375
								CHANNELS 3 Zrotation Yrotation Xrotation
								End Site
								{
									OFFSET 0.000000 0.000000 0.000000
								}
							}
						}
					}
				}
				JOINT rclavicle
				{
					OFFSET -0.082954 0.112472 -0.023707
					CHANNELS 3 Zrotation Yrotation Xrotation
					JOINT rshoulder
					{
						OFFSET -0.113228 0.046853 -0.008472
						CHANNELS 3 Zrotation Yrotation Xrotation
						JOINT relbow
						{
							OFFSET -0.260127 -0.014369 -0.031269
							CHANNELS 3 Zrotation Yrotation Xrotation
							JOINT rwrist
							{
								OFFSET -0.269108 0.006794 -0.006027
								CHANNELS 3 Zrotation Yrotation Xrotation
								End Site
								{
									OFFSET 0.000000 0.000000 0.000000
								}
							}
						}
					}
				}
			}
		}
	}
}
MOTION
Frames: 10
Frame Time: 0.033333
0.926023 0.634689 0.670447 86.589869 -1.680748 61.982363 13.654527 2.544443 -52.150463 -0.740808 12.345461 57.004800 -5.968764 4.204635 11.438759 0.000000 -0.000000 0.000000 -13.940435 -2.457894 -56.923619 -7.740094 -14.257852 66.785053 9.727284 0.268162 13.265148 0.000000 -0.000000 0.000000 -1.296158 2.552369 52.851310 -1.145512 -3.162089 -12.032257 1.792435 -2.983060 -12.284240 -3.574837 -0.014126 1.200084 7.055801 -0.614227 -3.336703 -32.803831 -18.405012 7.842225 -37.413807 -12.294947 13.570237 3.457297 -63.107419 19.533585 -20.477540 -12.653451 5.969971 32.491627 21.507605 11.189865 40.328440 17.255566 15.943532 11.226901 60.527725 32.862156 11.508532 11.830073 0.411569 
0.925645 0.634572 0.669944 86.609585 -1.689831 61.870545 13.675618 2.500425 -52.073137 -0.668480 12.455441 57.006641 -6.373784 3.789914 11.815383 0.000000 -0.000000 0.000000 -13.891356 -2.465744 -56.826216 -8.211231 -14.267417 66.792734 9.860574 0.563888 14.070988 0.000000 -0.000000 0.000000 -1.111502 2.512052 52.753668 -1.171145 -3.237670 -12.023220 1.796779 -3.058509 -12.083337 -3.328505 0.119341 1.176813 6.907393 -1.052882 -3.258123 -32.495358 -18.277647 7.598451 -37.834649 -12.282191 13.711785 4.448879 -63.245116 18.859090 -19.245792 -12.898274 5.913004 32.437483 21.412873 10.844103 40.207917 17.198476 16.089523 11.373994 60.518365 33.356407 8.927523 12.328539 0.565542 
0.925435 0.634563 0.669687 86.637378 -1.773890 61.740123 13.668106 2.405678 -51.864206 -0.715915 12.543228 56.820283 -6.850790 3.611875 12.861926 0.000000 -0.000000 0.000000 -13.975743 -2.456343 -56.650410 -8.465791 -14.278815 66.651602 10.152306 0.371295 15.565755 0.000000 -0.000000 0.000000 -1.053179 2.467428 52.610758 -1.170217 -3.266781 -11.839506 1.753675 -3.079622 -11.997510 -3.283678 -0.025706 1.241600 7.004138 -1.207306 -3.213872 -32.310745 -17.997728 7.491100 -38.046713 -12.377552 13.549174 4.972138 -63.737371 18.868805 -18.464953 -12.900723 6.410621 32.301954 21.158580 10.688295 40.354274 17.347730 16.045444 11.231238 60.692652 33.648898 7.068785 12.519910 1.495072 
0.925221 0.634250 0.669817 86.536466 -1.951521 61.377222 13.758986 2.309570 -51.212045 -0.699628 12.697989 56.390930 -7.011702 3.516836 15.188198 0.000000 -0.000000 0.000000 -14.023338 -2.238777 -56.159250 -8.570764 -14.213012 66.228398 10.002448 0.120260 18.413010 0.000000 -0.000000 0.000000 -1.077830 2.525568 52.501613 -1.251327 -3.237275 -11.309127 1.736950 -3.096319 -11.937284 -3.310133 -0.302330 1.282469 7.326210 -1.223802 -3.229872 -32.073805 -17.855261 7.396400 -38.225476 -12.309934 13.191222 6.167147 -64.499795 18.611190 -18.033062 -12.746846 7.390726 32.036784 21.222824 10.524556 41.012258 17.326425 15.979921 9.438630 60.916299 32.810760 6.041932 12.585948 2.971217 
0.925181 0.633956 0.670050 86.453380 -2.033221 61.179614 13.845644 2.288174 -50.849418 -0.706045 12.827847 56.136398 -6.727542 3.450227 16.153994 0.000000 -0.000000 0.000000 -13.984895 -2.123817 -55.887193 -8.409063 -14.142023 65.911240 9.544562 0.057698 19.615680 0.000000 -0.000000 0.000000 -1.105253 2.607233 52.391046 -1.265071 -3.208264 -10.988174 1.752771 -3.076121 -11.884963 -3.380652 -0.485718 1.312026 7.559582 -1.231401 -3.250450 -31.817374 -17.814598 7.316364 -38.535766 -12.295618 12.926467 6.950350 -64.593755 18.140738 -18.229744 -12.482115 7.558291 31.930090 21.270051 10.477561 41.393512 17.343421 15.775423 7.849993 60.806541 32.141494 6.828745 12.391821 4.763128 
0.925118 0.633737 0.670039 86.439741 -2.089391 60.951027 13.870509 2.231964 -50.577165 -0.663861 12.964438 56.045741 -6.513183 3.518616 16.517276 0.000000 -0.000000 0.000000 -13.974793 -2.067016 -55.658022 -8.332128 -14.117986 65.794924 9.213091 -0.036835 20.064498 0.000000 -0.000000 0.000000 -1.127744 2.658826 52.236854 -1.226046 -3.200310 -10.659832 1.755229 -3.048995 -11.747918 -3.397379 -0.661882 1.326755 7.759288 -1.323133 -3.244190 -31.513957 -17.756849 7.216926 -39.004433 -12.390081 12.698701 8.015536 -64.186826 16.746379 -18.440407 -12.354264 6.715078 31.785107 21.293243 10.308439 41.890555 17.512771 15.640525 6.143022 60.265828 30.846117 8.274694 11.914345 5.663381 
0.925051 0.633551 0.669841 86.451006 -2.127548 60.844597 13.876627 2.210034 -50.515082 -0.627262 13.064064 56.151694 -6.406065 3.533894 16.518614 0.000000 -0.000000 0.000000 -14.026628 -2.008049 -55.610955 -8.304073 -14.091078 65.884775 9.121639 -0.072680 20.066697 0.000000 -0.000000 0.000000 -1.156871 2.684393 52.072786 -1.170151 -3.177969 -10.545494 1.754633 -3.045252 -11.595243 -3.362737 -0.763790 1.352619 7.845138 -1.460860 -3.176173 -31.285371 -17.642713 7.143583 -39.439336 -12.546285 12.642344 8.606297 -63.582497 15.490042 -18.253542 -12.514765 5.471220 31.628084 21.234818 10.080944 42.429076 17.715499 15.717639 5.370772 59.528199 29.763934 9.236598 11.562718 4.994074 
0.925069 0.633473 0.669717 86.455221 -2.192584 60.738734 13.877201 2.194444 -50.412126 -0.469233 13.232880 56.231359 -6.419226 3.484943 16.466786 0.000000 -0.000000 0.000000 -14.096897 -1.968269 -55.539750 -8.334353 -14.062840 65.920093 9.135025 -0.104757 20.087486 0.000000 -0.000000 0.000000 -1.178290 2.752432 51.929575 -1.102855 -3.169455 -10.387917 1.778147 -3.064253 -11.566646 -3.356354 -0.906887 1.357633 7.852080 -1.597362 -3.018343 -31.144446 -17.651238 7.156502 -39.796149 -12.638480 12.634735 8.997283 -63.191098 14.689585 -18.860271 -12.540608 4.944313 31.598762 21.273059 9.995301 42.711374 17.810807 15.737079 4.915332 59.092309 29.216919 11.358506 11.228352 4.983587 
0.925112 0.633538 0.669539 86.470389 -2.280898 60.642866 13.852955 2.145599 -50.304065 -0.368459 13.366968 56.224359 -6.464098 3.490429 16.471868 0.000000 -0.000000 0.000000 -14.220548 -1.920120 -55.481302 -8.353476 -14.073617 65.936192 9.157674 -0.151338 20.158236 0.000000 -0.000000 0.000000 -1.213702 2.813436 51.809455 -1.054388 -3.173885 -10.237229 1.806012 -3.095042 -11.576035 -3.317749 -1.057113 1.313799 7.811947 -1.760536 -2.848029 -31.069869 -17.759390 7.161553 -39.959498 -12.694891 12.818450 8.958858 -62.865611 14.604035 -19.472287 -12.529411 5.044893 31.578386 21.399032 9.941752 42.794102 17.848678 15.815986 5.058008 58.845425 28.860650 13.078797 11.233016 4.123186 
0.925139 0.633749 0.669371 86.459644 -2.367329 60.518748 13.850040 2.063518 -50.184518 -0.319850 13.472479 56.233113 -6.527068 3.581441 16.476933 0.000000 -0.000000 0.000000 -14.372986 -1.815803 -55.411566 -8.344899 -14.105778 65.978611 9.223720 -0.228092 20.219122 0.000000 -0.000000 0.000000 -1.229097 2.862212 51.660172 -1.000946 -3.171915 -10.006010 1.848532 -3.131043 -11.616525 -3.300177 -1.245476 1.247965 7.727463 -1.968169 -2.751296 -31.159400 -18.024766 7.259400 -39.822312 -12.705687 13.069934 8.710184 -62.439709 14.600179 -20.040899 -12.700680 5.639354 31.623801 21.626022 9.963382 42.397938 17.864270 15.896328 6.325054 58.764205 29.418283 14.346269 11.592188 3.180000 
